<svg viewBox="0 0 12 12" xmlns="http://www.w3.org/2000/svg">
  <path d="M149.194 0.608947C148.471 1.02946 147.747 1.59655 146.927 1.86657C144.569 2.64278 143.886 3.71113 144.639 5.9754C144.825 6.5336 145.033 7.17016 144.998 7.77556C144.951 8.60452 144.5 9.009 145.055 9.84039C145.764 10.9014 146.89 11.1441 148.089 10.9405C148.518 10.8676 148.895 10.7146 149.33 10.7145C150.514 10.714 151.679 11.3214 152.851 10.8442C154.256 10.2726 155.248 8.36142 155.683 7.00462C156.337 4.96079 155.534 4.24808 153.982 3.12657C153.084 2.47766 153.079 1.38619 152.273 0.721588C151.1 -0.24512 150.147 0.0546857 149.194 0.608947Z" fill="currentColor" transform="translate(-144.5, 0)"/>
</svg>
