<svg viewBox="0 0 15 15" xmlns="http://www.w3.org/2000/svg">
  <path d="M0.503591 21.0854C0.152382 21.6763 -0.0331871 22.3899 0.00490116 23.2173C0.0850636 24.9608 0.881817 25.6885 2.45495 26.2013C4.17556 26.7622 5.03078 27.4766 6.27529 28.8671C7.02598 29.706 7.42237 30.9046 8.42019 31.5074C9.41093 32.1058 10.6966 32.0224 11.7662 32.3511C12.2884 32.5113 12.7649 33.1891 13.3114 33.2474C14.4749 33.3714 14.6835 32.4063 14.5874 31.3551C14.4877 30.2638 13.5634 29.5688 13.0373 28.6805C12.3699 27.5534 12.2551 26.2123 11.5789 25.0888C10.6138 23.4856 9.34006 21.7323 7.87677 20.5413C6.99099 19.8202 6.11364 19.1018 4.93157 19.0616C3.03956 18.9972 1.32116 19.7086 0.502706 21.0854H0.503591Z" fill="currentColor" transform="translate(0, -19)"/>
</svg>
