<!-- Has not been optimized. Todd and Ivan will do a pass on the logo later in April. -->
<svg viewBox="0 0 328 105" xmlns="http://www.w3.org/2000/svg">

  <g id="name">
    <path d="M90.6149 83.421C90.6149 84.0838 90.4249 84.3685 89.7588 84.3685H86.8561C86.2383 84.3685 86 84.0838 86 83.421V53.0822C86 52.4185 86.2383 52.1335 86.8561 52.1335H89.7588C90.4249 52.1335 90.6149 52.4181 90.6149 53.0822V83.421Z"/>
    <path d="M101.32 60.856C101.986 60.856 102.176 61.1407 102.224 61.7563L102.319 63.2734C103.651 62.1358 106.268 60.477 110.217 60.477C114.641 60.477 116.925 63.0369 116.925 66.5447V83.421C116.925 84.0838 116.687 84.3685 116.068 84.3685H113.309C112.691 84.3685 112.405 84.0838 112.405 83.421V67.6352C112.405 65.6917 111.501 64.5068 108.885 64.5068C105.84 64.5068 103.46 66.1184 102.415 66.9242V83.4215C102.415 84.0843 102.176 84.3689 101.558 84.3689H98.7985C98.1324 84.3689 97.895 84.0843 97.895 83.4215V61.7567C97.895 61.1411 98.1324 60.8565 98.7985 60.8565L101.32 60.856Z"/>
    <path d="M142.237 83.4682C142.57 83.895 142.427 84.3685 141.809 84.3685H138.764C138.098 84.3685 137.764 83.9418 137.384 83.4682L129.296 72.8971H127.916V83.4682C127.916 84.0838 127.678 84.3685 127.06 84.3685H124.253C123.635 84.3685 123.396 84.0838 123.396 83.4682V52.1335C123.396 51.517 123.635 51.2332 124.253 51.2332H127.06C127.678 51.2332 127.916 51.517 127.916 52.1335V69.4837H129.249L136.432 61.7563C136.812 61.3295 137.242 60.856 137.907 60.856H140.904C141.57 60.856 141.76 61.3772 141.332 61.8035L132.912 71.0481L142.237 83.4682Z"/>
    <path d="M182.345 65.5959C182.963 65.5959 183.248 65.8334 183.248 66.4971V68.5349C183.248 69.1987 182.963 69.4361 182.345 69.4361H179.109V77.4945C179.109 81.3814 176.397 84.7471 167.643 84.7471C158.842 84.7471 156.225 81.4758 156.225 77.6361V72.849C156.225 70.2891 157.13 68.3456 160.459 67.3969C157.463 66.5438 156.606 64.8369 156.606 62.2779V58.8649C156.606 55.0253 158.605 51.754 166.502 51.754C174.447 51.754 176.493 55.1197 176.493 59.0066V60.2387C176.493 60.8552 176.255 61.1398 175.636 61.1398H172.83C172.211 61.1398 171.974 60.8552 171.974 60.2387V59.6231C171.974 57.0631 170.641 55.5932 166.549 55.5932C162.457 55.5932 161.173 57.0627 161.173 59.6231V61.6137C161.173 64.2209 162.459 65.5951 166.74 65.5951L182.345 65.5959ZM174.59 76.8784V69.4365H166.359C162.125 69.4365 160.792 70.8107 160.792 73.4178V76.8784C160.792 79.4384 162.886 80.9083 167.691 80.9083C172.449 80.9083 174.59 79.4388 174.59 76.8784Z"/>
    <path d="M214.603 59.6712C214.603 57.1112 213.033 55.6413 208.847 55.6413C204.66 55.6413 203.09 57.1108 203.09 59.6712V60.6186C203.09 62.7995 204.517 63.416 205.516 63.7955L214.175 67.0659C217.029 68.1563 219.409 70.0053 219.409 73.5127V77.4477C219.409 81.3346 216.697 84.7475 208.752 84.7475C200.807 84.7475 198.047 81.3346 198.047 77.4477V74.6976C198.047 74.0348 198.332 73.7501 198.951 73.7501H201.757C202.376 73.7501 202.614 74.0348 202.614 74.6976V76.8312C202.614 79.3911 204.421 80.8611 208.704 80.8611C212.987 80.8611 214.841 79.3916 214.841 76.8312V74.6031C214.841 72.233 212.7 71.4276 210.844 70.7162L202.804 67.6351C200.711 66.8294 198.57 64.6957 198.57 61.7567V59.0547C198.57 55.1678 201.043 51.7548 208.799 51.7548C216.554 51.7548 219.122 55.1678 219.122 59.0547V61.1411C219.122 61.7567 218.884 62.0413 218.266 62.0413H215.459C214.794 62.0413 214.603 61.7567 214.603 61.1411L214.603 59.6712Z"/>
    <path d="M247.337 83.5155C247.147 84.1311 247.004 84.3685 246.385 84.3685H243.103C242.484 84.3685 242.294 84.0838 242.151 83.5155L238.583 69.5309C238.345 68.7724 238.107 67.3973 238.107 67.1608L237.536 69.5309L233.493 83.5155C233.349 84.0838 233.207 84.3685 232.588 84.3685H229.354C228.735 84.3685 228.545 84.1311 228.401 83.5155L222.503 61.8035C222.312 61.1879 222.74 60.856 223.359 60.856H226.023C226.642 60.856 226.926 61.2351 227.07 61.8035L231.018 76.5462C231.209 77.3528 231.351 78.5377 231.399 78.6798L231.922 76.5462L236.014 61.8035C236.157 61.2351 236.442 60.856 237.061 60.856H239.82C240.439 60.856 240.676 61.2351 240.819 61.8035L244.53 76.5462C244.815 77.731 244.911 78.4424 244.959 78.5854C244.959 78.4424 245.243 77.2103 245.434 76.5462L249.383 61.8035C249.526 61.2351 249.763 60.856 250.382 60.856H252.666C253.284 60.856 253.665 61.1879 253.474 61.8035L247.337 83.5155Z"/>
    <path d="M262.088 83.421C262.088 84.0838 261.85 84.3685 261.231 84.3685H258.472C257.806 84.3685 257.568 84.0838 257.568 83.421V61.8035C257.568 61.1407 257.806 60.856 258.472 60.856H261.231C261.85 60.856 262.088 61.1407 262.088 61.8035V83.421Z"/>
    <path d="M262.378 55.8068C261.872 56.5137 261.013 56.9766 260.02 56.959C258.824 56.9378 257.703 56.5287 256.922 55.4846C256.077 54.3554 255.657 52.4088 256.975 51.588C258.196 50.8268 259.852 50.6715 261.164 51.506C262.564 52.396 263.42 54.3488 262.378 55.8068Z"/>
    <path d="M279.454 60.9505C280.072 60.9505 280.357 61.1879 280.357 61.8035V63.7006C280.357 64.3634 280.072 64.6481 279.454 64.6481H274.553V77.4C274.553 79.3907 275.79 80.5284 279.358 80.5284H280.262C280.881 80.5284 281.166 80.813 281.166 81.4758V83.4674C281.166 84.1302 280.881 84.3676 280.262 84.3676H278.692C271.984 84.3676 269.986 82.0451 269.986 77.8731V64.6472H267.369C266.704 64.6472 266.466 64.3625 266.466 63.6997V62.04C266.466 61.4244 266.704 61.187 267.369 61.1398L269.7 60.9496H269.986V56.1625C269.986 55.4988 270.271 55.2137 270.89 55.2137H273.697C274.315 55.2137 274.553 55.4983 274.553 56.1625V60.9496L279.454 60.9505Z"/>
    <path d="M303.243 66.971V67.824C303.243 68.4877 303.005 68.7251 302.386 68.7251H299.818C299.152 68.7251 298.913 68.4877 298.913 67.824V67.3029C298.913 65.3122 297.819 64.1746 294.204 64.1746C290.636 64.1746 289.541 65.3122 289.541 67.3029V77.9212C289.541 79.9119 290.636 81.0495 294.204 81.0495C297.819 81.0495 298.913 79.9119 298.913 77.9212V76.9724C298.913 76.3568 299.152 76.0722 299.818 76.0722H302.386C303.005 76.0722 303.243 76.3568 303.243 76.9724V78.2531C303.243 82.14 300.816 84.7476 294.108 84.7476C287.401 84.7476 285.021 82.1404 285.021 78.2531V66.9706C285.021 63.0837 287.447 60.4761 294.156 60.4761C300.864 60.4761 303.243 63.0837 303.243 66.971Z"/>
    <path d="M313.092 63.1313C314.471 62.0409 317.041 60.4765 320.894 60.4765C325.319 60.4765 327.603 63.0365 327.603 66.5443V83.4206C327.603 84.0834 327.364 84.368 326.746 84.368H323.986C323.369 84.368 323.083 84.0834 323.083 83.4206V67.6347C323.083 65.6913 322.179 64.5064 319.562 64.5064C316.518 64.5064 314.138 66.118 313.092 66.9238V83.421C313.092 84.0838 312.854 84.3685 312.235 84.3685H309.476C308.81 84.3685 308.573 84.0838 308.573 83.421V52.1811C308.573 51.5174 308.81 51.2337 309.476 51.2337H312.235C312.854 51.2337 313.092 51.5174 313.092 52.1811V63.1313Z"/>
  </g>

  <g id="logo">
    <path d="M34.7486 85.3929C33.5652 85.3567 32.3593 85.9039 31.6453 86.8615C30.8087 87.9837 30.6094 89.4713 31.4172 90.6628C31.9753 91.4858 33.2937 91.8525 34.2105 92.1129C34.963 92.3269 36.5109 92.2674 37.0853 91.6941C37.6982 91.0825 37.8413 89.9056 37.9999 89.0962C38.1761 88.1969 37.9839 87.4021 37.5459 86.7817C36.9573 85.9476 35.9258 85.4287 34.7486 85.3929Z"/>
    <path d="M32.2126 78.7476C32.5798 77.9202 32.435 77.0243 32.753 76.2088C33.1671 75.1467 33.0222 74.2164 32.2871 73.3206C31.9053 72.8555 31.6015 72.1794 31.1347 71.799C30.9318 71.6335 30.7135 71.4994 30.481 71.3961C30.2484 71.2929 30.0022 71.2214 29.7436 71.1808C29.1138 71.0828 28.546 71.4623 27.9113 71.3233C27.5721 71.2492 27.2709 71.0541 26.9233 71.0232C26.4879 70.9848 25.8683 71.1221 25.4569 71.2818C24.5751 71.6238 24.0737 72.7906 23.6574 73.5637C23.3859 74.0677 22.9563 74.4812 22.8221 75.0425C22.6751 75.6563 22.5808 76.3156 22.7083 76.9414C22.8553 77.6607 23.327 78.2834 23.7943 78.8279C24.6016 79.7679 25.2921 81.0357 26.7133 81.0944C27.9184 81.1438 29.1541 80.7387 30.3202 80.4845C31.2317 80.2859 31.8459 79.5741 32.2126 78.7476Z"/>
    <path d="M50.8332 51.999H46.6962C45.5376 52.0334 44.2718 52.5899 43.588 53.4283C43.3622 53.7055 43.1996 54.0126 43.1261 54.3409C42.9157 55.28 43.2014 56.3109 43.7585 57.0588C44.2426 57.7084 44.9282 58.0063 45.7015 58.1581C45.7741 58.7031 44.5562 59.3015 44.1235 59.4039C43.6562 59.5142 43.1695 59.4052 42.6907 59.3703C41.9635 59.3178 41.204 59.1854 40.5454 59.3999L40.2079 59.2882C39.8611 58.6925 39.6698 58.012 39.618 57.3254C39.5803 56.8263 39.6149 56.3201 39.5179 55.829C39.5117 55.7972 39.5046 55.7654 39.4975 55.7337C39.343 55.0695 38.9568 54.4742 38.4922 53.9716C38.0054 53.4451 37.431 53.0082 36.8725 52.5586C36.6989 52.4187 36.5258 52.277 36.3796 52.1093C35.6143 51.232 36.039 50.0864 35.4934 49.1324C34.5102 47.4131 32.5571 46.0469 30.4622 46.7273C29.2146 47.1324 28.4798 48.2573 27.9838 49.3976C27.4789 50.5582 28.2106 52.1967 28.9245 53.1411C29.6327 54.0779 30.6509 54.7774 31.7816 55.1039C32.495 55.31 33.3086 55.4044 33.7989 55.9605C34.3538 56.5902 34.2693 57.5672 34.7015 58.2856C35.0682 58.8951 35.7503 59.2326 36.4013 59.523C37.1144 59.8412 37.854 60.1554 38.4629 60.654C38.7043 60.8513 38.8695 61.0772 39.0166 61.3138C38.9625 61.4801 38.9138 61.6483 38.8673 61.8155C38.6844 62.4726 38.5183 63.1487 38.1512 63.7237C37.7495 64.3525 37.1369 64.8145 36.6498 65.3803C35.7968 66.3705 35.345 67.7584 35.6896 69.017C35.8357 69.5509 36.1187 70.061 36.1139 70.6149C36.1077 71.2998 35.6573 71.9515 35.776 72.6263C35.919 73.44 36.741 73.7432 37.1082 74.4051C37.4837 75.0816 37.319 75.9929 37.8035 76.616C38.5094 77.5246 40.0516 77.2748 40.1508 78.7258C40.1667 78.9579 40.1295 79.1861 40.0808 79.4142C38.7229 79.3092 37.5054 80.5192 37.7131 82.5169C37.9209 84.5129 39.761 84.7883 41.1336 84.148C42.1695 83.6647 42.9357 82.659 42.5362 81.4777C43.119 81.2623 43.7568 81.1481 44.3538 81.3113C45.2542 81.558 45.7121 82.4428 45.7126 83.3271C45.7126 83.851 46.1386 84.2755 46.6643 84.2755C46.6643 84.2755 48.974 84.2777 49.0072 84.2755H50.835C51.3607 84.2755 51.7867 83.851 51.7867 83.3271V52.946C51.7867 52.4222 51.3607 51.9977 50.835 51.9977L50.8332 51.999Z"/>
    <path d="M29.8561 63.6648C29.9703 63.656 30.0824 63.6423 30.19 63.6234C30.861 63.5073 31.3464 62.9146 31.6241 62.273C31.8287 61.8004 31.9664 61.2642 31.915 60.7444C31.7915 59.4893 30.6785 58.5856 29.5128 58.2268C28.0026 57.7626 26.4113 58.6046 26.4418 60.2709C26.4613 61.3384 27.0849 62.4703 27.8954 63.1521C28.4078 63.5832 29.1753 63.7169 29.8561 63.6648Z"/>
    <path d="M69.055 51.9991H56.7861C56.2605 51.9991 55.8344 52.4237 55.8344 52.9475V83.3282C55.8344 83.8519 56.2605 84.2765 56.7861 84.2765H69.055C69.5806 84.2765 70.0067 83.8519 70.0067 83.3282V52.9475C70.0067 52.4237 69.5806 51.9991 69.055 51.9991Z"/>
    <path d="M66.5441 101.802C65.7363 100.011 63.5772 98.3847 62.6321 100.381C62.1471 101.405 62.4408 102.967 63.021 103.902C63.4878 104.655 63.9612 104.976 64.8377 104.991C65.5565 105.004 66.4489 104.395 66.7315 103.743C66.9658 103.203 66.8546 102.49 66.5441 101.802Z"/>
  </g>

  <g id="left">
    <path d="M0.503591 21.0854C0.152382 21.6763 -0.0331871 22.3899 0.00490116 23.2173C0.0850636 24.9608 0.881817 25.6885 2.45495 26.2013C4.17556 26.7622 5.03078 27.4766 6.27529 28.8671C7.02598 29.706 7.42237 30.9046 8.42019 31.5074C9.41093 32.1058 10.6966 32.0224 11.7662 32.3511C12.2884 32.5113 12.7649 33.1891 13.3114 33.2474C14.4749 33.3714 14.6835 32.4063 14.5874 31.3551C14.4877 30.2638 13.5634 29.5688 13.0373 28.6805C12.3699 27.5534 12.2551 26.2123 11.5789 25.0888C10.6138 23.4856 9.34006 21.7323 7.87677 20.5413C6.99099 19.8202 6.11364 19.1018 4.93157 19.0616C3.03956 18.9972 1.32116 19.7086 0.502706 21.0854H0.503591Z"/>
  </g>

  <g id="top">
    <path d="M149.194 0.608947C148.471 1.02946 147.747 1.59655 146.927 1.86657C144.569 2.64278 143.886 3.71113 144.639 5.9754C144.825 6.5336 145.033 7.17016 144.998 7.77556C144.951 8.60452 144.5 9.009 145.055 9.84039C145.764 10.9014 146.89 11.1441 148.089 10.9405C148.518 10.8676 148.895 10.7146 149.33 10.7145C150.514 10.714 151.679 11.3214 152.851 10.8442C154.256 10.2726 155.248 8.36142 155.683 7.00462C156.337 4.96079 155.534 4.24808 153.982 3.12657C153.084 2.47766 153.079 1.38619 152.273 0.721588C151.1 -0.24512 150.147 0.0546857 149.194 0.608947Z"/>
    <path d="M124.568 26.7205C126.283 25.9204 127.491 24.1253 126.208 22.0949C123.713 18.1427 119.184 19.8897 119.651 24.3755C119.949 27.2447 122.595 27.641 124.568 26.7205Z"/>
  </g>

</svg>
